<svg width="17" height="16" viewBox="0 0 17 16" fill="none" xmlns="http://www.w3.org/2000/svg">
<path d="M8.14365 15.989C7.92414 15.989 7.74854 15.814 7.74854 15.6062C7.74854 15.3875 7.92414 15.2125 8.13267 15.2016C9.97652 15.1688 11.7106 14.4579 13.0386 13.1784C13.1923 13.0252 13.4447 13.0362 13.5984 13.1893C13.752 13.3424 13.741 13.5939 13.5874 13.7471C12.1277 15.1578 10.196 15.9562 8.14365 15.989Z" fill="#BDFD66"/>
<path d="M7.89255 0.798359C7.67304 0.798359 7.49744 0.623376 7.49744 0.404648C7.49744 0.185919 7.67304 0.0109364 7.89255 0H7.92547C7.9584 0 7.99132 0 8.02425 0C8.24375 0 8.41936 0.174983 8.41936 0.393711C8.41936 0.612439 8.24375 0.787422 8.02425 0.787422H7.99132C7.9584 0.798359 7.92547 0.798359 7.89255 0.798359C7.90352 0.798359 7.90352 0.798359 7.89255 0.798359Z" fill="#BDFD66"/>
<path d="M0.39511 8.39916C0.175605 8.39916 0 8.22418 0 8.00545C0 5.7088 0.99875 3.52152 2.74382 2.00136C2.90845 1.85918 3.16088 1.87012 3.30356 2.03417C3.44624 2.19821 3.43526 2.44975 3.27063 2.59192C1.70117 3.95898 0.801195 5.93847 0.801195 8.00545C0.79022 8.22418 0.614616 8.39916 0.39511 8.39916Z" fill="#BDFD66"/>
<path d="M7.89127 15.989C5.83889 15.9562 3.90725 15.1578 2.44753 13.7471C2.29388 13.5939 2.28291 13.3424 2.43656 13.1893C2.59021 13.0362 2.84264 13.0252 2.9963 13.1784C4.32431 14.4579 6.0584 15.1688 7.90225 15.2016C8.12175 15.2016 8.29736 15.3875 8.28638 15.6062C8.28638 15.825 8.11078 15.989 7.89127 15.989Z" fill="#BDFD66"/>
<path d="M2.72187 13.8565C2.62309 13.8565 2.52431 13.8237 2.44749 13.7471C0.867047 12.227 0 10.1819 0 8.00553C0 7.7868 0.175605 7.61182 0.39511 7.61182C0.614616 7.61182 0.79022 7.7868 0.79022 8.00553C0.79022 9.97408 1.58044 11.8114 2.99625 13.1894C3.1499 13.3425 3.16088 13.594 3.00723 13.7471C2.9304 13.8237 2.83162 13.8565 2.72187 13.8565Z" fill="#BDFD66"/>
<path d="M8.02389 16.0001C7.99097 16.0001 7.95804 16.0001 7.92512 16.0001H7.89219C7.67269 16.0001 7.49708 15.8141 7.50806 15.5954C7.50806 15.3767 7.68366 15.2126 7.90317 15.2126H7.91414C7.93609 15.2126 7.96902 15.2126 7.99097 15.2126H8.03487C8.25438 15.2126 8.42998 15.3876 8.42998 15.6064C8.419 15.8251 8.2434 16.0001 8.02389 16.0001Z" fill="#BDFD66"/>
<path d="M8.02316 16.0001C7.80366 16.0001 7.62805 15.8251 7.62805 15.6064C7.62805 15.3876 7.80366 15.2126 8.02316 15.2126H8.06706C8.08901 15.2126 8.12194 15.2126 8.14389 15.2126C8.35242 15.2126 8.539 15.3767 8.54997 15.5954C8.54997 15.8141 8.38535 15.9891 8.16584 16.0001H8.13291C8.08901 16.0001 8.05609 16.0001 8.02316 16.0001Z" fill="#BDFD66"/>
<path d="M13.0512 2.69022C12.9634 2.69022 12.8646 2.65741 12.7878 2.59179C11.5037 1.46534 9.84641 0.831024 8.14524 0.809151C7.92574 0.809151 7.75013 0.623232 7.76111 0.404503C7.76111 0.185775 7.93671 0.0217285 8.16719 0.0217285C10.0659 0.0545378 11.8988 0.754469 13.3256 2.00122C13.4902 2.14339 13.5012 2.39493 13.3585 2.55898C13.2597 2.64647 13.1609 2.69022 13.0512 2.69022Z" fill="#BDFD66"/>
<path d="M2.9975 2.69043C2.88775 2.69043 2.778 2.64668 2.70117 2.55919C2.55849 2.39515 2.56947 2.14361 2.7341 2.00144C4.16088 0.754684 5.99375 0.0438167 7.89248 0.0219439C8.12296 0.0110075 8.28759 0.196927 8.29856 0.404719C8.29856 0.623447 8.12296 0.79843 7.91443 0.809366C6.20228 0.842175 4.55599 1.47649 3.27189 2.592C3.18408 2.65762 3.09628 2.69043 2.9975 2.69043Z" fill="#BDFD66"/>
<path d="M8.14389 0.798409C8.11096 0.798409 8.08901 0.798409 8.05609 0.798409H8.02316C7.80366 0.798409 7.62805 0.623426 7.62805 0.404698C7.62805 0.185969 7.80366 0.0109863 8.02316 0.0109863C8.05609 0.0109863 8.08901 0.0109863 8.12194 0.0109863H8.15487C8.37437 0.0109863 8.54997 0.196906 8.54997 0.415634C8.539 0.634362 8.3634 0.798409 8.14389 0.798409Z" fill="#BDFD66"/>
<path d="M13.3129 13.8564C13.2141 13.8564 13.1044 13.8126 13.0275 13.7361C12.8739 13.583 12.8849 13.3314 13.0385 13.1783C14.4653 11.8113 15.2446 9.96302 15.2446 7.99447C15.2446 5.92748 14.3446 3.94799 12.7751 2.58094C12.6105 2.43876 12.5995 2.18723 12.7422 2.02318C12.8849 1.85913 13.1373 1.8482 13.3019 1.99037C15.047 3.51053 16.0457 5.69782 16.0457 7.99447C16.0457 10.1817 15.1787 12.2159 13.5983 13.7361C13.5214 13.8236 13.4117 13.8564 13.3129 13.8564Z" fill="#BDFD66"/>
<path d="M5.2685 3.94808C5.20264 3.94808 5.13679 3.93714 5.08192 3.8934C4.89534 3.78403 4.81851 3.54343 4.92826 3.35751C5.61971 2.11076 6.61845 1.00618 7.80378 0.175014C7.97939 0.0437774 8.23182 0.0875232 8.35255 0.273442C8.47328 0.448425 8.44035 0.699963 8.25377 0.820263C7.16722 1.58581 6.25627 2.59196 5.61971 3.74029C5.54288 3.87152 5.41118 3.94808 5.2685 3.94808Z" fill="#BDFD66"/>
<path d="M8.02395 0.896705C7.90322 0.896705 7.78249 0.842023 7.70567 0.732659C7.58494 0.557676 7.61786 0.306139 7.80444 0.185838L7.84834 0.153029C7.88127 0.131156 7.90322 0.109283 7.93615 0.08741C8.11175 -0.0328906 8.36418 0.0108552 8.48491 0.185838C8.60564 0.360821 8.56174 0.612358 8.38613 0.732659C8.37516 0.743595 8.35321 0.754532 8.34223 0.765468C8.32028 0.787341 8.29833 0.798277 8.2654 0.82015C8.1776 0.874832 8.10077 0.896705 8.02395 0.896705Z" fill="#BDFD66"/>
<path d="M5.05944 12.4457C4.91676 12.4457 4.77409 12.3692 4.70823 12.227C4.04972 10.8927 3.72046 9.47101 3.72046 8.00553C3.72046 7.7868 3.89606 7.61182 4.11557 7.61182C4.33507 7.61182 4.51068 7.7868 4.51068 8.00553C4.51068 9.35071 4.81799 10.6521 5.42163 11.877C5.5204 12.0739 5.4326 12.3035 5.24602 12.402C5.18017 12.4348 5.12529 12.4457 5.05944 12.4457Z" fill="#BDFD66"/>
<path d="M8.14408 15.989C8.06726 15.989 7.99043 15.9671 7.92458 15.9234C7.89165 15.9015 7.8697 15.8796 7.83678 15.8578L7.79287 15.8249C7.61727 15.7046 7.57337 15.4531 7.6941 15.2781C7.8258 15.1031 8.06726 15.0594 8.24286 15.1797C8.26481 15.2016 8.28676 15.2125 8.30871 15.2344C8.31969 15.2453 8.34164 15.2563 8.35261 15.2672C8.52822 15.3875 8.58309 15.639 8.46237 15.814C8.39651 15.9343 8.27579 15.989 8.14408 15.989Z" fill="#BDFD66"/>
<path d="M8.02377 15.9016C7.94694 15.9016 7.87012 15.8797 7.79329 15.825C6.48723 14.9064 5.42263 13.6596 4.70924 12.227C4.61046 12.0301 4.69826 11.8004 4.88484 11.702C5.0824 11.6036 5.31288 11.6911 5.41165 11.877C6.0592 13.2003 7.03599 14.3377 8.24327 15.1798C8.41888 15.3001 8.46278 15.5516 8.34205 15.7266C8.26522 15.8469 8.1445 15.9016 8.02377 15.9016Z" fill="#BDFD66"/>
<path d="M4.11557 8.39906C3.89606 8.39906 3.72046 8.22407 3.72046 8.00534C3.72046 6.38675 4.13752 4.7791 4.92774 3.3683C5.03749 3.18238 5.27895 3.10583 5.46553 3.21519C5.65211 3.32456 5.72893 3.56516 5.61918 3.75108C4.89481 5.05251 4.51068 6.51799 4.51068 8.00534C4.51068 8.22407 4.33507 8.39906 4.11557 8.39906Z" fill="#BDFD66"/>
<path d="M5.26859 3.94794C5.22469 3.94794 5.18079 3.93701 5.13689 3.92607C4.26984 3.60891 3.46865 3.17146 2.75525 2.60276C2.57965 2.47153 2.5577 2.21999 2.6894 2.045C2.82111 1.87002 3.07354 1.84815 3.24914 1.97939C3.89668 2.4934 4.62105 2.89805 5.41127 3.18239C5.6198 3.25895 5.71858 3.47768 5.65273 3.68547C5.5759 3.84951 5.43322 3.94794 5.26859 3.94794Z" fill="#BDFD66"/>
<path d="M10.7783 3.94794C10.6137 3.94794 10.46 3.84951 10.4052 3.68547C10.3283 3.47768 10.4381 3.25895 10.6466 3.18239C11.4368 2.89805 12.1612 2.4934 12.8088 1.97939C12.9844 1.84815 13.2258 1.87002 13.3685 2.045C13.5002 2.21999 13.4782 2.46059 13.3026 2.60276C12.5892 3.17146 11.7881 3.60891 10.921 3.92607C10.8661 3.93701 10.8222 3.94794 10.7783 3.94794Z" fill="#BDFD66"/>
<path d="M8.02316 4.44011C7.80366 4.44011 7.62805 4.26513 7.62805 4.0464C7.62805 3.82767 7.80366 3.65269 8.02316 3.65269C8.90118 3.65269 9.79018 3.49958 10.6463 3.18243C10.8548 3.10587 11.0743 3.21524 11.1511 3.42303C11.2279 3.63082 11.1182 3.84955 10.9097 3.9261C9.96579 4.26513 8.99996 4.44011 8.02316 4.44011Z" fill="#BDFD66"/>
<path d="M8.02439 4.44019C7.04759 4.44019 6.08177 4.26521 5.1379 3.92618C4.92937 3.84962 4.83059 3.63089 4.89644 3.4231C4.97327 3.21531 5.19277 3.11688 5.4013 3.1825C6.25737 3.48872 7.13539 3.65277 8.02439 3.65277C8.2439 3.65277 8.4195 3.82775 8.4195 4.04648C8.4195 4.26521 8.2439 4.44019 8.02439 4.44019Z" fill="#BDFD66"/>
<path d="M13.3149 13.8565C13.2271 13.8565 13.1283 13.8237 13.0515 13.7581C12.3929 13.1894 11.6356 12.73 10.8235 12.4129C10.6149 12.3363 10.5162 12.1067 10.604 11.8989C10.6808 11.6911 10.9113 11.5927 11.1198 11.6802C12.0198 12.0301 12.8429 12.5332 13.5783 13.1675C13.7429 13.3097 13.7648 13.5612 13.6222 13.7253C13.5453 13.8128 13.4356 13.8565 13.3149 13.8565Z" fill="#BDFD66"/>
<path d="M10.9755 12.4457C10.9316 12.4457 10.8767 12.4348 10.8328 12.4129C9.92188 12.052 8.97801 11.877 8.02316 11.877C7.80366 11.877 7.62805 11.702 7.62805 11.4833C7.62805 11.2646 7.80366 11.0896 8.02316 11.0896C9.07679 11.0896 10.1194 11.2865 11.1292 11.6802C11.3267 11.7567 11.4365 11.9864 11.3487 12.1942C11.2828 12.3473 11.1401 12.4457 10.9755 12.4457Z" fill="#BDFD66"/>
<path d="M5.05964 12.4457C4.90598 12.4457 4.75233 12.3473 4.68648 12.1942C4.60965 11.9864 4.70843 11.7677 4.90598 11.6802C5.90473 11.2865 6.94738 11.0896 8.01198 11.0896C8.23149 11.0896 8.40709 11.2646 8.40709 11.4833C8.40709 11.702 8.23149 11.877 8.01198 11.877C7.05714 11.877 6.10229 12.052 5.20231 12.4129C5.15841 12.4348 5.11451 12.4457 5.05964 12.4457Z" fill="#BDFD66"/>
<path d="M2.72297 13.8564C2.61322 13.8564 2.50347 13.8126 2.42664 13.7251C2.28396 13.5611 2.30591 13.3096 2.47054 13.1674C3.20589 12.5331 4.02903 12.03 4.929 11.68C5.12656 11.6035 5.35704 11.7019 5.44484 11.8988C5.52167 12.1066 5.42289 12.3253 5.22534 12.4128C4.41317 12.7299 3.65587 13.1893 2.99736 13.758C2.90955 13.8236 2.82175 13.8564 2.72297 13.8564Z" fill="#BDFD66"/>
<path d="M11.9305 8.39906C11.711 8.39906 11.5354 8.22407 11.5354 8.00534C11.5354 6.51799 11.1513 5.04158 10.4269 3.75108C10.3172 3.56516 10.394 3.32456 10.5806 3.21519C10.7672 3.10583 11.0086 3.18238 11.1184 3.3683C11.9086 4.7791 12.3256 6.38675 12.3256 8.00534C12.3256 8.22407 12.15 8.39906 11.9305 8.39906Z" fill="#BDFD66"/>
<path d="M8.02267 0.896666C7.94585 0.896666 7.86902 0.874793 7.79219 0.831047C7.77024 0.809174 7.73732 0.798238 7.71537 0.776365C7.70439 0.765428 7.68244 0.754492 7.67146 0.743556C7.49586 0.623255 7.44098 0.371717 7.57269 0.196735C7.69341 0.0217519 7.94585 -0.0329299 8.12145 0.0983071C8.15438 0.12018 8.17633 0.142053 8.19828 0.163925L8.24218 0.196735C8.41778 0.317035 8.46168 0.568573 8.34096 0.743556C8.26413 0.831047 8.1434 0.896666 8.02267 0.896666Z" fill="#BDFD66"/>
<path d="M7.90362 15.989C7.77192 15.989 7.65119 15.9234 7.57436 15.814C7.45363 15.639 7.49753 15.3875 7.68411 15.2672C7.69509 15.2563 7.71704 15.2453 7.72801 15.2344C7.74996 15.2125 7.78289 15.2016 7.80484 15.1797C7.98045 15.0594 8.23288 15.1031 8.3536 15.2781C8.47433 15.4531 8.43043 15.7046 8.25483 15.8249L8.21093 15.8578C8.178 15.8796 8.15605 15.9015 8.12312 15.9234C8.0463 15.9671 7.96947 15.989 7.90362 15.989Z" fill="#BDFD66"/>
<path d="M10.9761 12.4457C10.9212 12.4457 10.8554 12.4348 10.8005 12.402C10.6029 12.3035 10.5261 12.0739 10.6249 11.877C11.2285 10.6521 11.5358 9.35071 11.5358 8.00553C11.5358 7.7868 11.7114 7.61182 11.9309 7.61182C12.1505 7.61182 12.3261 7.7868 12.3261 8.00553C12.3261 9.47101 11.9968 10.8927 11.3383 12.227C11.2615 12.3582 11.1188 12.4457 10.9761 12.4457Z" fill="#BDFD66"/>
<path d="M8.02395 15.9016C7.90322 15.9016 7.78249 15.847 7.70567 15.7376C7.58494 15.5626 7.61786 15.3111 7.80444 15.1908C9.00075 14.3487 9.98852 13.2003 10.6361 11.888C10.7348 11.6911 10.9653 11.6146 11.1629 11.713C11.3604 11.8114 11.4373 12.0411 11.3385 12.2379C10.6251 13.6706 9.56049 14.9174 8.25443 15.836C8.1776 15.8798 8.10077 15.9016 8.02395 15.9016Z" fill="#BDFD66"/>
<path d="M10.7781 3.94812C10.6355 3.94812 10.5038 3.87157 10.4269 3.74033C9.79037 2.59201 8.87943 1.58585 7.79287 0.820305C7.61727 0.700005 7.57337 0.448467 7.6941 0.273484C7.81482 0.0985017 8.06726 0.0547559 8.24286 0.175056C9.42819 1.00622 10.416 2.1108 11.1184 3.35755C11.2281 3.54347 11.1513 3.78408 10.9647 3.89344C10.9099 3.93718 10.844 3.94812 10.7781 3.94812Z" fill="#BDFD66"/>
<path d="M4.11573 8.39924H0.39511C0.175605 8.39924 0 8.22426 0 8.00553C0 7.7868 0.175605 7.61182 0.39511 7.61182H4.11573C4.33523 7.61182 4.51084 7.7868 4.51084 8.00553C4.51084 8.22426 4.33523 8.39924 4.11573 8.39924Z" fill="#BDFD66"/>
<path d="M11.9304 8.39924H8.02316C7.80366 8.39924 7.62805 8.22426 7.62805 8.00553C7.62805 7.7868 7.80366 7.61182 8.02316 7.61182H11.9304C12.1499 7.61182 12.3255 7.7868 12.3255 8.00553C12.3255 8.22426 12.1499 8.39924 11.9304 8.39924Z" fill="#BDFD66"/>
<path d="M8.02277 8.39924H4.11557C3.89606 8.39924 3.72046 8.22426 3.72046 8.00553C3.72046 7.7868 3.89606 7.61182 4.11557 7.61182H8.02277C8.24227 7.61182 8.41788 7.7868 8.41788 8.00553C8.41788 8.22426 8.24227 8.39924 8.02277 8.39924Z" fill="#BDFD66"/>
<path d="M15.4203 8.39924H11.9301C11.7106 8.39924 11.535 8.22426 11.535 8.00553C11.535 7.7868 11.7106 7.61182 11.9301 7.61182H15.4203C15.6398 7.61182 15.8154 7.7868 15.8154 8.00553C15.8154 8.22426 15.6398 8.39924 15.4203 8.39924Z" fill="#BDFD66"/>
<path d="M8.02316 4.4402C7.80366 4.4402 7.62805 4.26521 7.62805 4.04649V0.503086C7.62805 0.284358 7.80366 0.109375 8.02316 0.109375C8.24267 0.109375 8.41827 0.284358 8.41827 0.503086V4.04649C8.41827 4.26521 8.24267 4.4402 8.02316 4.4402Z" fill="#BDFD66"/>
<path d="M8.02316 8.39924C7.80366 8.39924 7.62805 8.22426 7.62805 8.00553V4.04654C7.62805 3.82781 7.80366 3.65283 8.02316 3.65283C8.24267 3.65283 8.41827 3.82781 8.41827 4.04654V8.00553C8.41827 8.22426 8.24267 8.39924 8.02316 8.39924Z" fill="#BDFD66"/>
<path d="M8.02316 15.9016C7.80366 15.9016 7.62805 15.7266 7.62805 15.5079V11.4833C7.62805 11.2646 7.80366 11.0896 8.02316 11.0896C8.24267 11.0896 8.41827 11.2646 8.41827 11.4833V15.5079C8.41827 15.7266 8.24267 15.9016 8.02316 15.9016Z" fill="#BDFD66"/>
<path d="M8.02316 0.896837C7.80366 0.896837 7.62805 0.721854 7.62805 0.503125V0.404698C7.62805 0.185969 7.80366 0.0109863 8.02316 0.0109863C8.24267 0.0109863 8.41827 0.185969 8.41827 0.404698V0.503125C8.41827 0.721854 8.24267 0.896837 8.02316 0.896837Z" fill="#BDFD66"/>
<path d="M8.02316 11.877C7.80366 11.877 7.62805 11.702 7.62805 11.4833V8.00553C7.62805 7.7868 7.80366 7.61182 8.02316 7.61182C8.24267 7.61182 8.41827 7.7868 8.41827 8.00553V11.4833C8.41827 11.702 8.24267 11.877 8.02316 11.877Z" fill="#BDFD66"/>
<path d="M8.02316 15.9999C7.80366 15.9999 7.62805 15.8249 7.62805 15.6062V15.5077C7.62805 15.289 7.80366 15.114 8.02316 15.114C8.24267 15.114 8.41827 15.289 8.41827 15.5077V15.6062C8.41827 15.8249 8.24267 15.9999 8.02316 15.9999Z" fill="#BDFD66"/>
</svg>
